<svg xmlns="http://www.w3.org/2000/svg" width="1600" height="2400" viewBox="0 0 1600 2400" font-family="Inter, system-ui, sans-serif"><defs><linearGradient id="g" x1="0" y1="0" x2="1" y2="1"><stop offset="0" stop-color="#141414"/><stop offset="1" stop-color="#0c0c0c"/></linearGradient><radialGradient id="glow" cx="0.75" cy="0.2" r="0.6"><stop offset="0" stop-color="#c9a27a" stop-opacity="0.35"/><stop offset="1" stop-color="#c9a27a" stop-opacity="0"/></radialGradient></defs><rect x="0" y="0" width="1600" height="2400" rx="0" fill="url(#g)" opacity="1"/><rect x="0" y="0" width="1600" height="900" rx="0" fill="url(#glow)" opacity="1"/><rect x="90" y="70" width="150" height="30" rx="6" fill="#f2ede6" opacity="0.92"/><rect x="1130" y="74" width="90" height="22" rx="6" fill="#b0a79c" opacity="0.6"/><rect x="1260" y="74" width="90" height="22" rx="6" fill="#b0a79c" opacity="0.6"/><rect x="1390" y="74" width="90" height="22" rx="6" fill="#b0a79c" opacity="0.6"/><rect x="1390" y="66" width="120" height="40" rx="20" fill="#c9a27a" opacity="1"/><text x="90" y="470" font-size="150" font-weight="700" letter-spacing="-4" fill="#f2ede6">Sable & Co.</text><text x="94" y="560" font-size="42" fill="#b0a79c">The boutique, online</text><rect x="90" y="640" width="260" height="74" rx="37" fill="#c9a27a" opacity="1"/><rect x="380" y="640" width="200" height="74" rx="37" fill="none" opacity="1"/><rect x="380" y="640" width="200" height="74" rx="37" fill="none" stroke="#b0a79c" stroke-opacity="0.5"/><rect x="90" y="800" width="1420" height="620" rx="24" fill="#1d1c1a" opacity="1"/><rect x="90" y="800" width="1420" height="620" rx="24" fill="url(#glow)" opacity="0.5"/><rect x="150" y="870" width="380" height="26" rx="6" fill="#b0a79c" opacity="0.5"/><rect x="150" y="920" width="620" height="26" rx="6" fill="#b0a79c" opacity="0.3"/><rect x="150" y="1050" width="360" height="300" rx="16" fill="#0c0c0c" opacity="0.85"/><rect x="570" y="1050" width="360" height="300" rx="16" fill="#0c0c0c" opacity="0.85"/><rect x="990" y="1050" width="360" height="300" rx="16" fill="#0c0c0c" opacity="0.85"/><rect x="180" y="1090" width="120" height="120" rx="60" fill="#c9a27a" opacity="0.9"/><rect x="600" y="1090" width="120" height="120" rx="60" fill="#c9a27a" opacity="0.9"/><rect x="1020" y="1090" width="120" height="120" rx="60" fill="#c9a27a" opacity="0.9"/><text x="90" y="1600" font-size="72" font-weight="700" letter-spacing="-2" fill="#f2ede6">What we made</text><rect x="90" y="1700" width="446.6666666666667" height="460" rx="20" fill="#1d1c1a" opacity="1"/><rect x="130" y="1740" width="366.6666666666667" height="220" rx="12" fill="#0c0c0c" opacity="0.9"/><rect x="130" y="2000" width="326.6666666666667" height="24" rx="6" fill="#f2ede6" opacity="0.7"/><rect x="130" y="2044" width="366.6666666666667" height="20" rx="6" fill="#b0a79c" opacity="0.4"/><rect x="576.6666666666667" y="1700" width="446.6666666666667" height="460" rx="20" fill="#1d1c1a" opacity="1"/><rect x="616.6666666666667" y="1740" width="366.6666666666667" height="220" rx="12" fill="#0c0c0c" opacity="0.9"/><rect x="616.6666666666667" y="2000" width="326.6666666666667" height="24" rx="6" fill="#f2ede6" opacity="0.7"/><rect x="616.6666666666667" y="2044" width="366.6666666666667" height="20" rx="6" fill="#b0a79c" opacity="0.4"/><rect x="1063.3333333333335" y="1700" width="446.6666666666667" height="460" rx="20" fill="#1d1c1a" opacity="1"/><rect x="1103.3333333333335" y="1740" width="366.6666666666667" height="220" rx="12" fill="#0c0c0c" opacity="0.9"/><rect x="1103.3333333333335" y="2000" width="326.6666666666667" height="24" rx="6" fill="#f2ede6" opacity="0.7"/><rect x="1103.3333333333335" y="2044" width="366.6666666666667" height="20" rx="6" fill="#b0a79c" opacity="0.4"/><rect x="0" y="2260" width="1600" height="140" rx="0" fill="#0c0c0c" opacity="1"/><rect x="90" y="2320" width="130" height="26" rx="6" fill="#f2ede6" opacity="0.8"/><rect x="1040" y="2322" width="90" height="20" rx="6" fill="#b0a79c" opacity="0.5"/><rect x="1170" y="2322" width="90" height="20" rx="6" fill="#b0a79c" opacity="0.5"/><rect x="1300" y="2322" width="90" height="20" rx="6" fill="#b0a79c" opacity="0.5"/><rect x="1430" y="2322" width="90" height="20" rx="6" fill="#b0a79c" opacity="0.5"/></svg>